/* XPM */
static char * close_inactive_xpm[] = {
"12 24 3 1",
" 	c None",
".	c #333333",
"+	c #FFFFFF",
"............",
"++++++++++++",
"............",
"............",
"............",
".....++.....",
".....++.....",
".....++.....",
"..++++++++..",
"..++++++++..",
".....++.....",
".....++.....",
".....++.....",
".....++.....",
".....++.....",
".....++.....",
"............",
"............",
"............",
"............",
"............",
"............",
"............",
"............"};
