/* XPM */
static char * maximize_active_xpm[] = {
"12 24 3 1",
" 	c None",
".	c #333333",
"+	c #FFFFFF",
"............",
"++++++++++++",
"............",
"............",
"............",
"............",
".++++++++++.",
".++++++++++.",
".+........+.",
".+........+.",
".+......+.+.",
".+......+...",
".+....+++++.",
".+......+...",
".++++++.+.+.",
"............",
"............",
"............",
"............",
"............",
"............",
"............",
"............",
"............"};
