/* XPM */
static char * menu_active_xpm[] = {
"12 24 3 1",
" 	c None",
".	c #3C3C3C",
"+	c #808080",
"............",
"++++++++++++",
"............",
"............",
"............",
"............",
"...++++++...",
"............",
".....++.....",
".....++.....",
".....++.....",
"...++++++...",
"....++++....",
".....++.....",
"............",
"............",
"............",
"............",
"............",
"            ",
"            ",
"            ",
"            ",
"            "};
