/* XPM */
static char * top_left_inactive_xpm[] = {
"3 24 3 1",
" 	c None",
".	c #333333",
"+	c #FFFFFF",
"...",
".++",
".+.",
".+.",
".+.",
".+.",
".+.",
".+.",
".+.",
".+.",
".+.",
".+.",
".+.",
".+.",
".+.",
".+.",
".+.",
".+.",
".+.",
".+.",
".+.",
".+.",
".+.",
".+."};
