/* XPM */
static char * hide_inactive_xpm[] = {
"12 24 3 1",
" 	c None",
".	c #333333",
"+	c #FFFFFF",
"............",
"++++++++++++",
"............",
"............",
"............",
"............",
"............",
"............",
"............",
"............",
"............",
"............",
"............",
".++++++++++.",
".++++++++++.",
"............",
"............",
"............",
"............",
"............",
"............",
"............",
"............",
"............"};
